<svg width="18" height="18" viewBox="0 0 18 18" xmlns="http://www.w3.org/2000/svg" aria-hidden="true" focusable="false">
  <title>Google icon</title>
  <g fill="none" fill-rule="evenodd">
    <path d="M17.64 9.204c0-.64-.057-1.252-.163-1.838H9v3.475h4.844a4.14 4.14 0 0 1-1.8 2.718v2.258h2.915c1.704-1.57 2.681-3.883 2.681-6.613z" fill="#4285F4"/>
    <path d="M9 18c2.43 0 4.467-.806 5.956-2.183l-2.915-2.258c-.806.54-1.84.858-3.041.858-2.337 0-4.317-1.58-5.025-3.708H.948v2.332A9 9 0 0 0 9 18z" fill="#34A853"/>
    <path d="M3.975 10.709a5.41 5.41 0 0 1 0-3.418V4.959H.948a9 9 0 0 0 0 8.082l3.027-2.332z" fill="#FBBC05"/>
    <path d="M9 3.579c1.321 0 2.507.454 3.438 1.345l2.577-2.577C13.463.891 11.426 0 9 0A9 9 0 0 0 .948 4.959l3.027 2.332C4.683 5.159 6.663 3.579 9 3.579z" fill="#EA4335"/>
  </g>
</svg>
